<svg width="178" height="42" viewBox="0 0 178 42" fill="none" xmlns="http://www.w3.org/2000/svg">
<rect x="0.5" y="0.5" width="177" height="41" stroke="#808080"/>
<path d="M29.111 27H27.53V15.168H29.298L33.582 22.053L37.798 15.168H39.566V27H37.968V17.599L33.548 24.79L29.111 17.633V27ZM44.7118 27.238C43.8108 27.238 43.0968 27 42.5528 26.507C42.0088 26.031 41.7368 25.385 41.7368 24.552C41.7368 23.668 42.0598 22.971 42.7058 22.478C43.3348 21.985 44.2528 21.747 45.4258 21.747H47.4828V21.373C47.4828 20.676 47.3128 20.166 46.9558 19.86C46.5988 19.571 46.1058 19.418 45.4768 19.418C44.9498 19.418 44.5248 19.52 44.1848 19.724C43.8448 19.928 43.6408 20.183 43.5558 20.472H42.0258C42.1788 19.758 42.5528 19.18 43.1818 18.721C43.7938 18.279 44.5588 18.058 45.4938 18.058C46.5648 18.058 47.4318 18.33 48.0608 18.891C48.6898 19.452 48.9958 20.319 48.9958 21.492V27H47.5678V25.691C47.2618 26.218 46.8538 26.592 46.3268 26.847C45.7998 27.119 45.2728 27.238 44.7118 27.238ZM45.0518 25.912C45.4258 25.912 45.7998 25.827 46.1738 25.657C46.5478 25.487 46.8538 25.232 47.1088 24.892C47.3638 24.569 47.4828 24.144 47.4828 23.634V22.988H45.5278C44.8138 22.988 44.2528 23.107 43.8618 23.362C43.4708 23.617 43.2668 23.991 43.2668 24.484C43.2668 24.943 43.4368 25.3 43.7598 25.538C44.0828 25.793 44.5248 25.912 45.0518 25.912ZM52.9765 21.849V27H51.4635V18.296H52.9425V19.469C53.2485 19.01 53.6395 18.67 54.1155 18.415C54.5915 18.177 55.1185 18.058 55.6795 18.058C56.3255 18.058 56.8865 18.211 57.3455 18.517C57.8045 18.823 58.1445 19.248 58.3995 19.775C58.6545 20.302 58.7735 20.914 58.7735 21.611V27H57.2605V21.9C57.2605 21.135 57.0905 20.54 56.7505 20.098C56.4105 19.673 55.9175 19.452 55.2545 19.452C54.8465 19.452 54.4725 19.537 54.1325 19.724C53.7755 19.911 53.5035 20.183 53.2995 20.54C53.0785 20.897 52.9765 21.339 52.9765 21.849ZM63.5878 27.238C62.6868 27.238 61.9728 27 61.4288 26.507C60.8848 26.031 60.6128 25.385 60.6128 24.552C60.6128 23.668 60.9358 22.971 61.5818 22.478C62.2108 21.985 63.1288 21.747 64.3018 21.747H66.3588V21.373C66.3588 20.676 66.1888 20.166 65.8318 19.86C65.4748 19.571 64.9818 19.418 64.3528 19.418C63.8258 19.418 63.4008 19.52 63.0608 19.724C62.7208 19.928 62.5168 20.183 62.4318 20.472H60.9018C61.0548 19.758 61.4288 19.18 62.0578 18.721C62.6698 18.279 63.4348 18.058 64.3698 18.058C65.4408 18.058 66.3078 18.33 66.9368 18.891C67.5658 19.452 67.8718 20.319 67.8718 21.492V27H66.4438V25.691C66.1378 26.218 65.7298 26.592 65.2028 26.847C64.6758 27.119 64.1488 27.238 63.5878 27.238ZM63.9278 25.912C64.3018 25.912 64.6758 25.827 65.0498 25.657C65.4238 25.487 65.7298 25.232 65.9848 24.892C66.2398 24.569 66.3588 24.144 66.3588 23.634V22.988H64.4038C63.6898 22.988 63.1288 23.107 62.7378 23.362C62.3468 23.617 62.1428 23.991 62.1428 24.484C62.1428 24.943 62.3128 25.3 62.6358 25.538C62.9588 25.793 63.4008 25.912 63.9278 25.912ZM73.6885 27.051C72.9235 27.051 72.2435 26.864 71.6655 26.473C71.0705 26.082 70.6115 25.555 70.2885 24.875C69.9655 24.212 69.7955 23.43 69.7955 22.563C69.7955 21.696 69.9655 20.914 70.2885 20.234C70.6115 19.554 71.0705 19.027 71.6655 18.636C72.2435 18.245 72.9235 18.058 73.6885 18.058C74.3345 18.058 74.8955 18.194 75.3885 18.483C75.8815 18.772 76.2725 19.18 76.5785 19.673V18.296H78.0575V26.745C78.0575 28.003 77.7175 28.989 77.0205 29.686C76.3235 30.383 75.3715 30.723 74.1305 30.723C73.0765 30.723 72.2095 30.485 71.5125 30.026C70.8155 29.567 70.3735 28.972 70.1695 28.241H71.8015C71.9885 28.564 72.2605 28.819 72.6345 29.023C73.0085 29.227 73.5015 29.329 74.0965 29.329C74.8955 29.329 75.4905 29.125 75.9155 28.717C76.3405 28.309 76.5445 27.68 76.5445 26.83V25.47C76.2385 25.963 75.8475 26.337 75.3545 26.626C74.8615 26.915 74.3175 27.051 73.6885 27.051ZM73.9605 25.657C74.4875 25.657 74.9465 25.521 75.3375 25.249C75.7285 24.994 76.0515 24.62 76.2725 24.161C76.4935 23.702 76.6125 23.158 76.6125 22.546C76.6125 21.934 76.4935 21.39 76.2725 20.931C76.0515 20.472 75.7285 20.098 75.3375 19.843C74.9465 19.588 74.4875 19.452 73.9605 19.452C73.4505 19.452 72.9915 19.588 72.6005 19.843C72.2095 20.098 71.9035 20.472 71.6825 20.931C71.4615 21.39 71.3425 21.934 71.3425 22.546C71.3425 23.158 71.4615 23.702 71.6825 24.161C71.9035 24.62 72.2095 24.994 72.6005 25.249C72.9915 25.521 73.4505 25.657 73.9605 25.657ZM84.2542 27.238C83.3872 27.238 82.6562 27.051 82.0272 26.677C81.3982 26.303 80.9052 25.776 80.5652 25.079C80.2252 24.382 80.0552 23.566 80.0552 22.631C80.0552 21.764 80.2252 20.982 80.5652 20.285C80.8882 19.588 81.3642 19.044 81.9932 18.653C82.6052 18.262 83.3362 18.058 84.2032 18.058C85.0362 18.058 85.7332 18.245 86.2942 18.602C86.8552 18.976 87.2972 19.486 87.5862 20.132C87.8752 20.795 88.0282 21.56 88.0282 22.427V23.141H81.6192C81.7042 24.025 81.9592 24.705 82.4182 25.164C82.8772 25.64 83.4892 25.878 84.2712 25.878C84.7812 25.878 85.2232 25.793 85.5802 25.606C85.9372 25.436 86.1582 25.215 86.2772 24.926H87.8412C87.6372 25.623 87.2122 26.184 86.5662 26.609C85.9202 27.034 85.1552 27.238 84.2542 27.238ZM84.1862 19.418C83.4722 19.418 82.8942 19.639 82.4692 20.064C82.0272 20.506 81.7552 21.118 81.6532 21.883H86.4982C86.4642 21.152 86.2602 20.557 85.8862 20.098C85.4952 19.639 84.9342 19.418 84.1862 19.418ZM94.2849 27V15.168H98.6369C100.15 15.168 101.306 15.508 102.088 16.205C102.87 16.902 103.261 17.803 103.261 18.942C103.261 20.081 102.87 20.999 102.088 21.696C101.306 22.393 100.15 22.733 98.6369 22.733H95.8999V27H94.2849ZM95.8999 21.288H98.4159C99.4869 21.288 100.303 21.084 100.83 20.676C101.357 20.268 101.612 19.69 101.612 18.942C101.612 18.211 101.357 17.633 100.83 17.225C100.303 16.817 99.4869 16.613 98.4159 16.613H95.8999V21.288ZM106.749 22.597V27H105.236V18.296H106.715V19.843C106.987 19.333 107.344 18.942 107.786 18.653C108.228 18.381 108.721 18.245 109.265 18.245H109.537V19.707H109.231C108.789 19.707 108.381 19.809 108.007 20.03C107.616 20.251 107.31 20.574 107.089 20.999C106.868 21.424 106.749 21.968 106.749 22.597ZM114.718 27.238C113.902 27.238 113.171 27.051 112.542 26.66C111.913 26.269 111.42 25.742 111.063 25.045C110.706 24.348 110.519 23.549 110.519 22.648C110.519 21.747 110.706 20.948 111.063 20.251C111.42 19.554 111.913 19.027 112.542 18.636C113.171 18.245 113.902 18.058 114.718 18.058C115.534 18.058 116.265 18.245 116.894 18.636C117.523 19.027 118.033 19.554 118.39 20.251C118.747 20.948 118.917 21.747 118.917 22.648C118.917 23.549 118.747 24.348 118.39 25.045C118.033 25.742 117.523 26.269 116.894 26.66C116.265 27.051 115.534 27.238 114.718 27.238ZM114.718 25.844C115.5 25.844 116.146 25.555 116.639 24.977C117.132 24.399 117.37 23.617 117.37 22.648C117.37 21.679 117.132 20.897 116.639 20.319C116.146 19.741 115.5 19.452 114.718 19.452C113.936 19.452 113.307 19.741 112.814 20.319C112.321 20.897 112.066 21.679 112.066 22.648C112.066 23.617 112.321 24.399 112.814 24.977C113.307 25.555 113.936 25.844 114.718 25.844ZM119.938 18.296H121.485V17.514C121.485 16.613 121.723 15.916 122.216 15.423C122.692 14.93 123.372 14.675 124.239 14.675H124.902V16.035H124.477C124.001 16.035 123.644 16.171 123.389 16.443C123.134 16.732 122.998 17.123 122.998 17.616V18.296H124.902V19.656H122.998V27H121.485V19.656H119.938V18.296ZM127.4 17.038C127.111 17.038 126.856 16.936 126.652 16.732C126.448 16.528 126.346 16.273 126.346 15.984C126.346 15.695 126.448 15.44 126.652 15.236C126.856 15.032 127.111 14.93 127.4 14.93C127.689 14.93 127.944 15.032 128.148 15.236C128.352 15.44 128.454 15.695 128.454 15.984C128.454 16.273 128.352 16.528 128.148 16.732C127.944 16.936 127.689 17.038 127.4 17.038ZM126.635 27V18.296H128.148V27H126.635ZM130.703 27V14.675H132.216V27H130.703ZM138.425 27.238C137.558 27.238 136.827 27.051 136.198 26.677C135.569 26.303 135.076 25.776 134.736 25.079C134.396 24.382 134.226 23.566 134.226 22.631C134.226 21.764 134.396 20.982 134.736 20.285C135.059 19.588 135.535 19.044 136.164 18.653C136.776 18.262 137.507 18.058 138.374 18.058C139.207 18.058 139.904 18.245 140.465 18.602C141.026 18.976 141.468 19.486 141.757 20.132C142.046 20.795 142.199 21.56 142.199 22.427V23.141H135.79C135.875 24.025 136.13 24.705 136.589 25.164C137.048 25.64 137.66 25.878 138.442 25.878C138.952 25.878 139.394 25.793 139.751 25.606C140.108 25.436 140.329 25.215 140.448 24.926H142.012C141.808 25.623 141.383 26.184 140.737 26.609C140.091 27.034 139.326 27.238 138.425 27.238ZM138.357 19.418C137.643 19.418 137.065 19.639 136.64 20.064C136.198 20.506 135.926 21.118 135.824 21.883H140.669C140.635 21.152 140.431 20.557 140.057 20.098C139.666 19.639 139.105 19.418 138.357 19.418ZM147.31 27.255C146.29 27.255 145.457 27.017 144.794 26.524C144.131 26.048 143.74 25.436 143.604 24.705H145.134C145.219 25.028 145.457 25.317 145.848 25.555C146.222 25.793 146.698 25.912 147.276 25.912C147.837 25.912 148.296 25.793 148.636 25.555C148.976 25.334 149.146 25.011 149.146 24.603C149.146 24.28 149.027 24.008 148.789 23.787C148.551 23.583 148.143 23.447 147.565 23.362L146.239 23.192C144.59 22.988 143.774 22.189 143.774 20.778C143.774 20.251 143.927 19.792 144.216 19.367C144.505 18.959 144.896 18.636 145.406 18.398C145.899 18.177 146.477 18.058 147.123 18.058C148.058 18.058 148.823 18.279 149.418 18.738C150.013 19.197 150.387 19.775 150.54 20.472H149.027C148.908 20.115 148.704 19.86 148.381 19.673C148.058 19.486 147.65 19.401 147.157 19.401C146.596 19.401 146.154 19.52 145.831 19.758C145.491 20.013 145.321 20.336 145.321 20.727C145.321 21.05 145.44 21.305 145.678 21.475C145.916 21.645 146.307 21.764 146.851 21.832L148.177 22.002C149.01 22.104 149.639 22.393 150.064 22.852C150.489 23.311 150.693 23.889 150.693 24.552C150.693 25.096 150.54 25.572 150.251 25.98C149.962 26.388 149.554 26.694 149.044 26.915C148.517 27.153 147.939 27.255 147.31 27.255Z" fill="#808080"/>
</svg>
