<svg width="208" height="56" viewBox="0 0 208 56" fill="none" xmlns="http://www.w3.org/2000/svg">
<rect width="208" height="56" rx="4" fill="#E50914"/>
<path d="M33.7071 36.884C32.0511 36.884 30.5871 36.5 29.3391 35.756C28.0911 35.012 27.1311 33.956 26.4351 32.636C25.7391 31.316 25.3791 29.828 25.3791 28.148C25.3791 26.444 25.7391 24.956 26.4351 23.636C27.1311 22.316 28.1151 21.284 29.3631 20.54C30.6111 19.796 32.0511 19.412 33.6831 19.412C35.5311 19.412 37.1151 19.868 38.4111 20.756C39.7071 21.644 40.5951 22.892 41.0511 24.5H37.6911C37.4271 23.852 36.9471 23.348 36.2511 22.94C35.5551 22.532 34.7151 22.34 33.6831 22.34C32.6991 22.34 31.8111 22.58 31.0671 23.036C30.3231 23.516 29.7231 24.188 29.3151 25.052C28.9071 25.94 28.6911 26.972 28.6911 28.148C28.6911 29.324 28.9071 30.356 29.3151 31.22C29.7231 32.084 30.3231 32.756 31.0911 33.236C31.8591 33.716 32.7711 33.956 33.8031 33.956C34.6431 33.956 35.4111 33.788 36.0591 33.452C36.7071 33.116 37.2351 32.66 37.5951 32.084C37.9551 31.508 38.1471 30.86 38.1471 30.164V29.9H33.6831V27.116H41.3631V29.444C41.3631 30.86 41.0511 32.108 40.4511 33.236C39.8271 34.364 38.9391 35.252 37.8111 35.9C36.6591 36.548 35.2911 36.884 33.7071 36.884ZM49.45 36.86C48.178 36.86 47.074 36.596 46.162 36.044C45.226 35.516 44.53 34.748 44.026 33.764C43.522 32.78 43.282 31.604 43.282 30.236C43.282 29.012 43.522 27.884 44.026 26.9C44.506 25.916 45.202 25.148 46.114 24.572C47.026 24.02 48.106 23.732 49.378 23.732C51.202 23.732 52.594 24.308 53.578 25.484C54.562 26.66 55.042 28.22 55.042 30.164V31.268H46.354C46.618 33.332 47.65 34.364 49.474 34.364C50.074 34.364 50.554 34.268 50.962 34.076C51.346 33.884 51.61 33.644 51.754 33.332H54.826C54.514 34.412 53.89 35.276 52.954 35.9C51.994 36.548 50.818 36.86 49.45 36.86ZM49.354 26.228C48.514 26.228 47.842 26.468 47.338 26.948C46.834 27.452 46.498 28.148 46.354 29.06H52.066C52.042 28.22 51.802 27.524 51.346 26.996C50.89 26.492 50.218 26.228 49.354 26.228ZM62.3008 36.596C61.0528 36.596 60.0928 36.26 59.4208 35.564C58.7248 34.892 58.3888 33.908 58.3888 32.588V26.732H56.3728V24.092H58.3888V20.324C59.4448 20.276 60.4528 20.108 61.4368 19.82V24.092H63.8848V26.732H61.4368V32.252C61.4368 32.804 61.5808 33.236 61.8448 33.524C62.1088 33.812 62.4928 33.956 62.9968 33.956H63.8848V36.596H62.3008ZM77.9451 36.884C76.0011 36.884 74.4171 36.428 73.1931 35.54C71.9691 34.652 71.1531 33.404 70.7931 31.796H74.0571C74.2731 32.468 74.7051 32.996 75.4011 33.404C76.0731 33.812 76.9131 34.028 77.8971 34.028C78.8331 34.028 79.6251 33.836 80.2491 33.476C80.8491 33.116 81.1611 32.612 81.1611 31.916C81.1611 31.508 81.0651 31.172 80.8971 30.86C80.7291 30.572 80.3931 30.308 79.9131 30.092C79.4331 29.876 78.7371 29.708 77.8251 29.564L75.9531 29.252C74.3931 28.988 73.2411 28.508 72.4731 27.764C71.6811 27.02 71.2971 25.964 71.2971 24.596C71.2971 23.54 71.5851 22.628 72.1611 21.836C72.7131 21.068 73.4811 20.468 74.4651 20.036C75.4251 19.628 76.5051 19.412 77.7051 19.412C79.4571 19.412 80.9211 19.82 82.0971 20.636C83.2731 21.476 84.0171 22.676 84.2811 24.26H81.0171C80.8491 23.588 80.4891 23.084 79.9131 22.748C79.3371 22.436 78.6171 22.268 77.7291 22.268C76.7451 22.268 75.9771 22.436 75.4251 22.796C74.8731 23.156 74.5851 23.66 74.5851 24.308C74.5851 24.884 74.8011 25.34 75.2331 25.652C75.6411 25.964 76.4811 26.228 77.7531 26.444L79.5531 26.732C82.8411 27.26 84.4731 28.892 84.4731 31.604C84.4731 32.732 84.1851 33.668 83.6331 34.46C83.0811 35.252 82.3131 35.852 81.3291 36.26C80.3451 36.692 79.2171 36.884 77.9451 36.884ZM91.7852 36.596C90.5372 36.596 89.5772 36.26 88.9052 35.564C88.2092 34.892 87.8732 33.908 87.8732 32.588V26.732H85.8572V24.092H87.8732V20.324C88.9292 20.276 89.9372 20.108 90.9212 19.82V24.092H93.3692V26.732H90.9212V32.252C90.9212 32.804 91.0652 33.236 91.3292 33.524C91.5932 33.812 91.9772 33.956 92.4812 33.956H93.3692V36.596H91.7852ZM99.2314 36.86C97.9354 36.86 96.9034 36.5 96.1354 35.78C95.3434 35.084 94.9594 34.124 94.9594 32.948C94.9594 31.676 95.4154 30.668 96.3514 29.948C97.2874 29.228 98.5834 28.868 100.239 28.868H102.759V28.412C102.759 27.644 102.543 27.092 102.135 26.732C101.727 26.396 101.151 26.228 100.455 26.228C99.8554 26.228 99.3514 26.348 98.9674 26.588C98.5834 26.828 98.3434 27.116 98.2474 27.428H95.3194C95.5354 26.372 96.0874 25.484 96.9994 24.788C97.9114 24.092 99.0874 23.732 100.551 23.732C102.159 23.732 103.431 24.14 104.367 24.932C105.303 25.748 105.759 27.02 105.759 28.724V36.5H102.951V34.964C102.543 35.612 102.015 36.092 101.343 36.404C100.647 36.716 99.9514 36.86 99.2314 36.86ZM99.9994 34.412C100.431 34.412 100.863 34.316 101.295 34.124C101.703 33.932 102.063 33.644 102.351 33.26C102.615 32.9 102.759 32.42 102.759 31.844V31.052H100.383C99.5914 31.052 98.9914 31.196 98.5834 31.484C98.1514 31.796 97.9354 32.204 97.9354 32.756C97.9354 33.308 98.1274 33.716 98.5114 33.98C98.8954 34.268 99.3994 34.412 99.9994 34.412ZM111.878 30.38V36.5H108.83V24.092H111.758V26.156C112.142 25.46 112.646 24.932 113.246 24.548C113.846 24.188 114.518 23.996 115.262 23.996H115.742V26.876H115.166C114.23 26.876 113.462 27.188 112.838 27.788C112.19 28.388 111.878 29.252 111.878 30.38ZM122.981 36.596C121.733 36.596 120.773 36.26 120.101 35.564C119.405 34.892 119.069 33.908 119.069 32.588V26.732H117.053V24.092H119.069V20.324C120.125 20.276 121.133 20.108 122.117 19.82V24.092H124.565V26.732H122.117V32.252C122.117 32.804 122.261 33.236 122.525 33.524C122.789 33.812 123.173 33.956 123.677 33.956H124.565V36.596H122.981ZM132.419 36.86C131.147 36.86 130.043 36.596 129.131 36.044C128.195 35.516 127.499 34.748 126.995 33.764C126.491 32.78 126.251 31.604 126.251 30.236C126.251 29.012 126.491 27.884 126.995 26.9C127.475 25.916 128.171 25.148 129.083 24.572C129.995 24.02 131.075 23.732 132.347 23.732C134.171 23.732 135.563 24.308 136.547 25.484C137.531 26.66 138.011 28.22 138.011 30.164V31.268H129.323C129.587 33.332 130.619 34.364 132.443 34.364C133.043 34.364 133.523 34.268 133.931 34.076C134.315 33.884 134.579 33.644 134.723 33.332H137.795C137.483 34.412 136.859 35.276 135.923 35.9C134.963 36.548 133.787 36.86 132.419 36.86ZM132.323 26.228C131.483 26.228 130.811 26.468 130.307 26.948C129.803 27.452 129.467 28.148 129.323 29.06H135.035C135.011 28.22 134.771 27.524 134.315 26.996C133.859 26.492 133.187 26.228 132.323 26.228ZM145.294 36.86C144.214 36.86 143.278 36.572 142.462 36.02C141.622 35.468 140.974 34.676 140.518 33.692C140.038 32.708 139.798 31.58 139.798 30.284C139.798 28.988 140.038 27.836 140.518 26.852C140.974 25.868 141.622 25.1 142.462 24.548C143.278 23.996 144.214 23.732 145.294 23.732C146.086 23.732 146.806 23.9 147.43 24.212C148.054 24.548 148.582 25.004 149.014 25.604V19.1H152.038V36.5H149.11V34.868C148.702 35.492 148.174 35.972 147.526 36.332C146.878 36.692 146.134 36.86 145.294 36.86ZM146.014 34.148C146.95 34.148 147.694 33.788 148.294 33.092C148.87 32.396 149.158 31.46 149.158 30.284C149.158 29.108 148.87 28.172 148.294 27.476C147.694 26.78 146.95 26.444 146.014 26.444C145.102 26.444 144.358 26.78 143.782 27.476C143.182 28.172 142.894 29.108 142.894 30.284C142.894 31.46 143.182 32.396 143.782 33.092C144.358 33.788 145.102 34.148 146.014 34.148Z" fill="white"/>
<path d="M170 35.3611L177.5 27.9999L170 20.6387" stroke="white" stroke-width="2" stroke-linecap="square"/>
</svg>
