<svg width="131" height="32" viewBox="0 0 131 32" fill="none" xmlns="http://www.w3.org/2000/svg">
<rect x="0.5" y="0.5" width="130" height="31" rx="3.5" fill="black" fill-opacity="0.5"/>
<rect x="0.5" y="0.5" width="130" height="31" rx="3.5" stroke="#545454"/>
<path d="M11 11.3333H19M15 10V11.3333M15.6988 17.6667C14.6806 16.6119 13.8538 15.371 13.2746 14M17.3333 20H22M16.3333 22L19.6667 15.3333L23 22M17.5007 11.3333C16.8554 15.1801 14.3798 18.4063 11 20.086" stroke="white" stroke-width="1.33333" stroke-linecap="round" stroke-linejoin="round"/>
<path d="M34.264 22V10.864H42.296V12.768H36.44V15.376H42.104V17.28H36.44V20.096H42.376V22H34.264ZM46.3693 17.136V22H44.3372V13.728H46.2893V14.704C46.8813 13.888 47.7133 13.488 48.7853 13.488C49.6813 13.488 50.3853 13.792 50.9133 14.416C51.4413 15.04 51.6973 15.856 51.6973 16.864V22H49.6653V17.168C49.6653 16.608 49.5373 16.144 49.2813 15.808C49.0093 15.472 48.6093 15.312 48.0813 15.312C47.6013 15.312 47.2013 15.472 46.8653 15.792C46.5293 16.128 46.3693 16.576 46.3693 17.136ZM56.9115 21.968C56.1915 21.968 55.5675 21.792 55.0235 21.424C54.4635 21.056 54.0315 20.56 53.7275 19.92C53.4235 19.28 53.2635 18.544 53.2635 17.728C53.2635 16.912 53.4235 16.176 53.7275 15.536C54.0315 14.896 54.4635 14.4 55.0235 14.032C55.5675 13.664 56.1915 13.488 56.9115 13.488C57.4715 13.488 57.9675 13.6 58.3995 13.84C58.8315 14.08 59.1835 14.4 59.4715 14.8V13.728H61.4235V21.68C61.4235 22.912 61.0715 23.856 60.3835 24.528C59.6795 25.184 58.7195 25.52 57.5035 25.52C56.4635 25.52 55.5835 25.28 54.8795 24.8C54.1755 24.32 53.7435 23.712 53.5675 22.96H55.6795C55.8235 23.2 56.0315 23.392 56.3355 23.536C56.6395 23.68 57.0075 23.76 57.4555 23.76C58.0795 23.76 58.5595 23.6 58.8955 23.296C59.2315 22.992 59.4075 22.496 59.4075 21.84V20.736C59.1195 21.12 58.7675 21.424 58.3515 21.632C57.9195 21.856 57.4395 21.968 56.9115 21.968ZM57.3915 20.16C58.0155 20.16 58.5115 19.936 58.9115 19.472C59.3115 19.024 59.5035 18.432 59.5035 17.712C59.5035 16.992 59.3115 16.4 58.9115 15.952C58.5115 15.504 58.0155 15.28 57.3915 15.28C56.7995 15.28 56.3035 15.504 55.9195 15.952C55.5195 16.4 55.3275 16.992 55.3275 17.712C55.3275 18.432 55.5195 19.024 55.9195 19.472C56.3035 19.936 56.7995 20.16 57.3915 20.16ZM63.5404 22V10.4H65.5724V22H63.5404ZM68.705 12.768C68.369 12.768 68.065 12.64 67.825 12.4C67.569 12.16 67.441 11.856 67.441 11.504C67.441 11.152 67.569 10.848 67.825 10.608C68.065 10.368 68.369 10.24 68.705 10.24C69.041 10.24 69.345 10.368 69.601 10.608C69.841 10.848 69.969 11.152 69.969 11.504C69.969 11.856 69.841 12.16 69.601 12.4C69.345 12.64 69.041 12.768 68.705 12.768ZM67.681 22V13.728H69.713V22H67.681ZM74.9413 22.24C73.9173 22.24 73.0853 22 72.4453 21.52C71.7893 21.056 71.4213 20.432 71.3092 19.664H73.2613C73.3093 19.904 73.4853 20.128 73.7893 20.304C74.0933 20.48 74.4613 20.576 74.8932 20.576C75.3253 20.576 75.6613 20.496 75.9173 20.32C76.1573 20.16 76.2853 19.936 76.2853 19.664C76.2853 19.424 76.1893 19.232 75.9973 19.072C75.8053 18.912 75.4693 18.8 74.9893 18.736L73.7893 18.576C73.0053 18.464 72.4133 18.208 72.0293 17.792C71.6453 17.392 71.4533 16.848 71.4533 16.192C71.4533 15.648 71.5973 15.168 71.8853 14.768C72.1733 14.368 72.5733 14.048 73.0693 13.824C73.5653 13.6 74.1413 13.488 74.7653 13.488C75.4213 13.488 75.9813 13.6 76.4613 13.824C76.9413 14.048 77.3253 14.352 77.6133 14.72C77.9013 15.104 78.0773 15.52 78.1573 15.968H76.2213C76.1413 15.712 75.9813 15.504 75.7413 15.36C75.4852 15.216 75.1653 15.152 74.7973 15.152C74.3973 15.152 74.0613 15.232 73.8213 15.408C73.5813 15.584 73.4533 15.808 73.4533 16.08C73.4533 16.32 73.5493 16.496 73.7413 16.608C73.9333 16.736 74.2533 16.832 74.7013 16.896L75.8853 17.056C76.6853 17.168 77.2933 17.456 77.6933 17.92C78.0933 18.384 78.3013 18.928 78.3013 19.584C78.3013 20.128 78.1573 20.592 77.8693 20.992C77.5653 21.392 77.1653 21.696 76.6693 21.904C76.1573 22.128 75.5813 22.24 74.9413 22.24ZM79.8841 22V10.4H81.9161V14.64C82.5081 13.872 83.3241 13.488 84.3321 13.488C85.2281 13.488 85.9321 13.792 86.4601 14.416C86.9881 15.04 87.2441 15.856 87.2441 16.864V22H85.2121V17.168C85.2121 16.608 85.0841 16.144 84.8281 15.808C84.5561 15.472 84.1561 15.312 83.6281 15.312C83.1481 15.312 82.7481 15.472 82.4121 15.792C82.0761 16.128 81.9161 16.576 81.9161 17.136V22H79.8841Z" fill="white"/>
<path d="M109.5 18.5L105.603 14.75H113.397L109.5 18.5Z" fill="white"/>
</svg>
