<svg width="161" height="42" viewBox="0 0 161 42" fill="none" xmlns="http://www.w3.org/2000/svg">
<rect width="161" height="42" rx="4" fill="#6D6D6E" fill-opacity="0.7"/>
<circle cx="35" cy="21" r="12" stroke="white" stroke-width="2"/>
<path d="M35.5019 17.768C35.1659 17.768 34.8619 17.64 34.6219 17.4C34.3659 17.16 34.2379 16.856 34.2379 16.504C34.2379 16.152 34.3659 15.848 34.6219 15.608C34.8619 15.368 35.1659 15.24 35.5019 15.24C35.8379 15.24 36.1419 15.368 36.3979 15.608C36.6379 15.848 36.7659 16.152 36.7659 16.504C36.7659 16.856 36.6379 17.16 36.3979 17.4C36.1419 17.64 35.8379 17.768 35.5019 17.768ZM34.4779 27V18.728H36.5099V27H34.4779Z" fill="white"/>
<path d="M63.6721 27H61.5921V15.864H64.0241L67.5281 21.56L70.9521 15.864H73.3841V27H71.2881V18.92L67.4801 25.176L63.6721 18.936V27ZM79.8606 27.24C79.0446 27.24 78.3406 27.048 77.7166 26.68C77.0926 26.312 76.5966 25.784 76.2446 25.128C75.8926 24.472 75.7166 23.72 75.7166 22.856C75.7166 21.992 75.8926 21.224 76.2446 20.568C76.5966 19.912 77.0926 19.4 77.7166 19.032C78.3406 18.664 79.0446 18.488 79.8606 18.488C80.6766 18.488 81.3966 18.664 82.0206 19.032C82.6446 19.4 83.1246 19.912 83.4766 20.568C83.8286 21.224 84.0046 21.992 84.0046 22.856C84.0046 23.72 83.8286 24.472 83.4766 25.128C83.1246 25.784 82.6446 26.312 82.0206 26.68C81.3966 27.048 80.6766 27.24 79.8606 27.24ZM79.8606 25.432C80.4846 25.432 80.9806 25.192 81.3646 24.728C81.7486 24.264 81.9406 23.64 81.9406 22.856C81.9406 22.072 81.7486 21.448 81.3646 20.984C80.9806 20.52 80.4846 20.296 79.8606 20.296C79.2366 20.296 78.7406 20.52 78.3566 20.984C77.9726 21.448 77.7806 22.072 77.7806 22.856C77.7806 23.64 77.9726 24.264 78.3566 24.728C78.7406 25.192 79.2366 25.432 79.8606 25.432ZM88.1661 22.92V27H86.1341V18.728H88.0861V20.104C88.3421 19.64 88.6781 19.288 89.0781 19.032C89.4781 18.792 89.9261 18.664 90.4221 18.664H90.7421V20.584H90.3581C89.7341 20.584 89.2221 20.792 88.8061 21.192C88.3741 21.592 88.1661 22.168 88.1661 22.92ZM96.1411 27.24C95.2931 27.24 94.5571 27.064 93.9491 26.696C93.3251 26.344 92.8611 25.832 92.5251 25.176C92.1891 24.52 92.0291 23.736 92.0291 22.824C92.0291 22.008 92.1891 21.256 92.5251 20.6C92.8451 19.944 93.3091 19.432 93.9171 19.048C94.5251 18.68 95.2451 18.488 96.0931 18.488C97.3091 18.488 98.2371 18.872 98.8931 19.656C99.5491 20.44 99.8691 21.48 99.8691 22.776V23.512H94.0771C94.2531 24.888 94.9411 25.576 96.1571 25.576C96.5571 25.576 96.8771 25.512 97.1491 25.384C97.4051 25.256 97.5811 25.096 97.6771 24.888H99.7251C99.5171 25.608 99.1011 26.184 98.4771 26.6C97.8371 27.032 97.0531 27.24 96.1411 27.24ZM96.0771 20.152C95.5171 20.152 95.0691 20.312 94.7331 20.632C94.3971 20.968 94.1731 21.432 94.0771 22.04H97.8851C97.8691 21.48 97.7091 21.016 97.4051 20.664C97.1011 20.328 96.6531 20.152 96.0771 20.152ZM108.534 27H106.358V15.864H108.534V27ZM113.385 22.136V27H111.353V18.728H113.305V19.704C113.897 18.888 114.729 18.488 115.801 18.488C116.697 18.488 117.401 18.792 117.929 19.416C118.457 20.04 118.713 20.856 118.713 21.864V27H116.681V22.168C116.681 21.608 116.553 21.144 116.297 20.808C116.025 20.472 115.625 20.312 115.097 20.312C114.617 20.312 114.217 20.472 113.881 20.792C113.545 21.128 113.385 21.576 113.385 22.136ZM120.491 18.728H121.835V18.248C121.835 17.368 122.091 16.664 122.587 16.152C123.083 15.656 123.755 15.4 124.635 15.4H125.499V17.16H125.051C124.667 17.16 124.379 17.272 124.171 17.496C123.963 17.72 123.867 18.024 123.867 18.392V18.728H125.499V20.488H123.867V27H121.835V20.488H120.491V18.728ZM130.954 27.24C130.138 27.24 129.434 27.048 128.81 26.68C128.186 26.312 127.69 25.784 127.338 25.128C126.986 24.472 126.81 23.72 126.81 22.856C126.81 21.992 126.986 21.224 127.338 20.568C127.69 19.912 128.186 19.4 128.81 19.032C129.434 18.664 130.138 18.488 130.954 18.488C131.77 18.488 132.49 18.664 133.114 19.032C133.738 19.4 134.218 19.912 134.57 20.568C134.922 21.224 135.098 21.992 135.098 22.856C135.098 23.72 134.922 24.472 134.57 25.128C134.218 25.784 133.738 26.312 133.114 26.68C132.49 27.048 131.77 27.24 130.954 27.24ZM130.954 25.432C131.578 25.432 132.074 25.192 132.458 24.728C132.842 24.264 133.034 23.64 133.034 22.856C133.034 22.072 132.842 21.448 132.458 20.984C132.074 20.52 131.578 20.296 130.954 20.296C130.33 20.296 129.834 20.52 129.45 20.984C129.066 21.448 128.874 22.072 128.874 22.856C128.874 23.64 129.066 24.264 129.45 24.728C129.834 25.192 130.33 25.432 130.954 25.432Z" fill="white"/>
</svg>
