<svg width="119" height="42" viewBox="0 0 119 42" fill="none" xmlns="http://www.w3.org/2000/svg">
<rect width="119" height="42" rx="4" fill="white"/>
<rect width="21" height="24" transform="translate(26 9)" fill="white"/>
<path d="M45.4951 20.5876C46.1603 20.9831 46.1436 21.9519 45.465 22.324L27.4809 32.1878C26.8145 32.5533 26 32.0711 26 31.311L26 10.7577C26 9.98225 26.8444 9.50188 27.5109 9.89809L45.4951 20.5876Z" fill="black"/>
<path d="M60.5374 27V15.864H64.9374C66.3294 15.864 67.4174 16.2 68.1854 16.888C68.9534 17.576 69.3374 18.472 69.3374 19.592C69.3374 20.728 68.9534 21.624 68.1854 22.312C67.4174 23 66.3294 23.336 64.9374 23.336H62.7134V27H60.5374ZM62.7134 21.448H64.6494C65.4974 21.448 66.1374 21.288 66.5374 20.968C66.9374 20.648 67.1294 20.184 67.1294 19.592C67.1294 19 66.9374 18.552 66.5374 18.232C66.1374 17.912 65.4974 17.752 64.6494 17.752H62.7134V21.448ZM71.4388 27V15.4H73.4708V27H71.4388ZM78.3834 27.24C77.5194 27.24 76.8314 27 76.3194 26.52C75.7914 26.056 75.5354 25.416 75.5354 24.632C75.5354 23.784 75.8394 23.112 76.4634 22.632C77.0874 22.152 77.9514 21.912 79.0554 21.912H80.7354V21.608C80.7354 21.096 80.5914 20.728 80.3194 20.488C80.0474 20.264 79.6634 20.152 79.1994 20.152C78.7994 20.152 78.4634 20.232 78.2074 20.392C77.9514 20.552 77.7914 20.744 77.7274 20.952H75.7754C75.9194 20.248 76.2874 19.656 76.8954 19.192C77.5034 18.728 78.2874 18.488 79.2634 18.488C80.3354 18.488 81.1834 18.76 81.8074 19.288C82.4314 19.832 82.7354 20.68 82.7354 21.816V27H80.8634V25.976C80.5914 26.408 80.2394 26.728 79.7914 26.936C79.3274 27.144 78.8634 27.24 78.3834 27.24ZM78.8954 25.608C79.1834 25.608 79.4714 25.544 79.7594 25.416C80.0314 25.288 80.2714 25.096 80.4634 24.84C80.6394 24.6 80.7354 24.28 80.7354 23.896V23.368H79.1514C78.6234 23.368 78.2234 23.464 77.9514 23.656C77.6634 23.864 77.5194 24.136 77.5194 24.504C77.5194 24.872 77.6474 25.144 77.9034 25.32C78.1594 25.512 78.4954 25.608 78.8954 25.608ZM85.8992 30.28L87.2592 27L84.0112 18.728H86.3312L88.3792 24.632L90.3952 18.728H92.5872L88.0752 30.28H85.8992Z" fill="black"/>
</svg>
