<svg width="77" height="32" viewBox="0 0 77 32" fill="none" xmlns="http://www.w3.org/2000/svg">
<rect width="77" height="32" rx="4" fill="#E50914"/>
<path d="M20.6216 21.224C19.4876 21.224 18.5636 20.958 17.8496 20.44C17.1356 19.922 16.6596 19.194 16.4496 18.256H18.3536C18.4796 18.648 18.7316 18.956 19.1376 19.194C19.5296 19.432 20.0196 19.558 20.5936 19.558C21.1396 19.558 21.6016 19.446 21.9656 19.236C22.3156 19.026 22.4976 18.732 22.4976 18.326C22.4976 18.088 22.4416 17.892 22.3436 17.71C22.2456 17.542 22.0496 17.388 21.7696 17.262C21.4896 17.136 21.0836 17.038 20.5516 16.954L19.4596 16.772C18.5496 16.618 17.8776 16.338 17.4296 15.904C16.9676 15.47 16.7436 14.854 16.7436 14.056C16.7436 13.44 16.9116 12.908 17.2476 12.446C17.5696 11.998 18.0176 11.648 18.5916 11.396C19.1516 11.158 19.7816 11.032 20.4816 11.032C21.5036 11.032 22.3576 11.27 23.0436 11.746C23.7296 12.236 24.1636 12.936 24.3176 13.86H22.4136C22.3156 13.468 22.1056 13.174 21.7696 12.978C21.4336 12.796 21.0136 12.698 20.4956 12.698C19.9216 12.698 19.4736 12.796 19.1516 13.006C18.8296 13.216 18.6616 13.51 18.6616 13.888C18.6616 14.224 18.7876 14.49 19.0396 14.672C19.2776 14.854 19.7676 15.008 20.5096 15.134L21.5596 15.302C23.4776 15.61 24.4296 16.562 24.4296 18.144C24.4296 18.802 24.2616 19.348 23.9396 19.81C23.6176 20.272 23.1696 20.622 22.5956 20.86C22.0216 21.112 21.3636 21.224 20.6216 21.224ZM26.819 12.922C26.525 12.922 26.259 12.81 26.049 12.6C25.825 12.39 25.713 12.124 25.713 11.816C25.713 11.508 25.825 11.242 26.049 11.032C26.259 10.822 26.525 10.71 26.819 10.71C27.113 10.71 27.379 10.822 27.603 11.032C27.813 11.242 27.925 11.508 27.925 11.816C27.925 12.124 27.813 12.39 27.603 12.6C27.379 12.81 27.113 12.922 26.819 12.922ZM25.923 21V13.762H27.701V21H25.923ZM32.3317 20.972C31.7017 20.972 31.1557 20.818 30.6797 20.496C30.1897 20.174 29.8117 19.74 29.5457 19.18C29.2797 18.62 29.1397 17.976 29.1397 17.262C29.1397 16.548 29.2797 15.904 29.5457 15.344C29.8117 14.784 30.1897 14.35 30.6797 14.028C31.1557 13.706 31.7017 13.552 32.3317 13.552C32.8217 13.552 33.2557 13.65 33.6337 13.86C34.0117 14.07 34.3197 14.35 34.5717 14.7V13.762H36.2797V20.72C36.2797 21.798 35.9717 22.624 35.3697 23.212C34.7537 23.786 33.9137 24.08 32.8497 24.08C31.9397 24.08 31.1697 23.87 30.5537 23.45C29.9377 23.03 29.5597 22.498 29.4057 21.84H31.2537C31.3797 22.05 31.5617 22.218 31.8277 22.344C32.0937 22.47 32.4157 22.54 32.8077 22.54C33.3537 22.54 33.7737 22.4 34.0677 22.134C34.3617 21.868 34.5157 21.434 34.5157 20.86V19.894C34.2637 20.23 33.9557 20.496 33.5917 20.678C33.2137 20.874 32.7937 20.972 32.3317 20.972ZM32.7517 19.39C33.2977 19.39 33.7317 19.194 34.0817 18.788C34.4317 18.396 34.5997 17.878 34.5997 17.248C34.5997 16.618 34.4317 16.1 34.0817 15.708C33.7317 15.316 33.2977 15.12 32.7517 15.12C32.2337 15.12 31.7997 15.316 31.4637 15.708C31.1137 16.1 30.9457 16.618 30.9457 17.248C30.9457 17.878 31.1137 18.396 31.4637 18.788C31.7997 19.194 32.2337 19.39 32.7517 19.39ZM39.91 16.744V21H38.132V13.762H39.84V14.616C40.358 13.902 41.086 13.552 42.024 13.552C42.808 13.552 43.424 13.818 43.886 14.364C44.348 14.91 44.572 15.624 44.572 16.506V21H42.794V16.772C42.794 16.282 42.682 15.876 42.458 15.582C42.22 15.288 41.87 15.148 41.408 15.148C40.988 15.148 40.638 15.288 40.344 15.568C40.05 15.862 39.91 16.254 39.91 16.744ZM51.6067 21H49.7027V11.256H51.6067V21ZM55.4139 16.744V21H53.6359V13.762H55.3439V14.616C55.8619 13.902 56.5899 13.552 57.5279 13.552C58.3119 13.552 58.9279 13.818 59.3899 14.364C59.8519 14.91 60.0759 15.624 60.0759 16.506V21H58.2979V16.772C58.2979 16.282 58.1859 15.876 57.9619 15.582C57.7239 15.288 57.3739 15.148 56.9119 15.148C56.4919 15.148 56.1419 15.288 55.8479 15.568C55.5539 15.862 55.4139 16.254 55.4139 16.744Z" fill="white"/>
</svg>
